<?xml version="1.0" encoding="UTF-8" standalone="no"?>
<svg
   version="1.0"
   width="800"
   height="800"
   id="jollyRoger"
   sodipodi:docname="favicon.svg"
   xml:space="preserve"
   inkscape:version="1.2.2 (b0a8486541, 2022-12-01)"
   xmlns:inkscape="http://www.inkscape.org/namespaces/inkscape"
   xmlns:sodipodi="http://sodipodi.sourceforge.net/DTD/sodipodi-0.dtd"
   xmlns="http://www.w3.org/2000/svg"
   xmlns:svg="http://www.w3.org/2000/svg"><defs
     id="defs160" /><sodipodi:namedview
     id="namedview158"
     pagecolor="#505050"
     bordercolor="#ffffff"
     borderopacity="1"
     inkscape:showpageshadow="0"
     inkscape:pageopacity="0"
     inkscape:pagecheckerboard="1"
     inkscape:deskcolor="#505050"
     showgrid="false"
     inkscape:zoom="1.0509538"
     inkscape:cx="360.62479"
     inkscape:cy="564.24934"
     inkscape:window-width="1126"
     inkscape:window-height="1475"
     inkscape:window-x="1128"
     inkscape:window-y="0"
     inkscape:window-maximized="1"
     inkscape:current-layer="jollyRoger" /><rect
     style="fill:#000000;fill-opacity:1;stroke:#ffffff;stroke-width:0;stroke-linejoin:bevel;stroke-opacity:1"
     id="rect14842"
     width="800"
     height="800"
     x="0"
     y="0" /><g
     id="g29462"
     transform="translate(-533.60507,1302.7981)"><ellipse
       style="fill:#ffffff;fill-opacity:1;stroke:none;stroke-width:0;stroke-linejoin:bevel;stroke-opacity:1"
       id="path22787-1"
       cx="-793.44983"
       cy="-828.6153"
       rx="125.7772"
       ry="78.45903"
       transform="rotate(-15.550736)" /><rect
       style="fill:#ffffff;fill-opacity:1;stroke:none;stroke-width:0;stroke-linejoin:bevel;stroke-opacity:1"
       id="rect22789-9"
       width="64.928619"
       height="586.92163"
       x="-930.30487"
       y="-1206.2068" /><path
       style="fill:#ffffff;fill-opacity:1;stroke:none;stroke-width:1px;stroke-linecap:butt;stroke-linejoin:miter;stroke-opacity:1"
       d="m -930.30487,-1206.2068 v -84.2176 c 0,0 142.48029,50.6936 205.49566,153.4584 39.0757,63.7242 74.68383,177.27613 74.68383,177.27613 0,0 -73.43637,-124.94353 -104.81569,-158.72653 -39.70691,-42.7484 -78.30033,-77.7973 -175.3638,-87.7904"
       id="path25759"
       sodipodi:nodetypes="ccscsc" /></g><g
     id="g11559"
     transform="translate(362.46652,578.73086)"><path
       id="path7269-6"
       style="fill:#ffffff;fill-opacity:1;stroke:#ffffff;stroke-width:0;stroke-linejoin:bevel;stroke-opacity:1"
       d="m 39.80071,-555.43991 c -136.33647,3.1e-4 -246.85895,110.52279 -246.85926,246.85926 v 133.84153 c 77.1523,0 139.69662,62.31283 139.69671,139.17967 h 214.3251 c 9e-5,-76.86684 62.54441,-139.17967 139.69671,-139.17967 V -308.58065 C 286.65966,-444.91712 176.13718,-555.4396 39.80071,-555.43991 Z m -107.16255,164.87808 c 45.44522,0 82.28598,36.7041 82.28641,81.98118 -4.4e-4,45.27707 -36.84119,81.98116 -82.28641,81.98116 -45.44522,0 -82.28597,-36.70409 -82.28641,-81.98116 4.3e-4,-45.27708 36.84119,-81.98118 82.28641,-81.98118 z m 214.3251,0 c 45.44523,-1e-5 82.286,36.70409 82.28643,81.98118 -4.4e-4,45.27708 -36.84121,81.98117 -82.28643,81.98116 -45.44522,0 -82.28598,-36.70409 -82.28642,-81.98116 4.3e-4,-45.27708 36.84119,-81.98118 82.28642,-81.98118 z m -107.16255,123.38235 29.3094,50.76351 29.30732,50.76353 H 39.80071 -18.81601 l 29.30731,-50.76353 z"
       sodipodi:nodetypes="ccccccccscscsscscsccccccc" /><ellipse
       style="fill:#ffffff;fill-opacity:1;stroke:none;stroke-width:0;stroke-linejoin:bevel;stroke-opacity:1"
       id="path22787-1-8-2"
       cx="-118.60342"
       cy="218.95082"
       rx="125.7772"
       ry="78.45903"
       transform="rotate(49.199249)" /><path
       id="rect22789-9-4-9"
       style="fill:#ffffff;fill-opacity:1;stroke:none;stroke-width:0;stroke-linejoin:bevel;stroke-opacity:1"
       d="M 342.09173,-160.5882 189.29486,-88.52375 A 136.78653,136.22731 0 0 1 54.50579,24.96648 136.78653,136.22731 0 0 1 -13.25788,7.00555 l -175.49414,82.76952 27.69726,58.72461 530.84375,-250.36327 z" /><path
       style="fill:#ffffff;fill-opacity:1;stroke:none;stroke-width:1px;stroke-linecap:butt;stroke-linejoin:miter;stroke-opacity:1"
       d="m 342.09245,-160.58803 76.17103,-35.92462 c 0,0 14.92759,150.49134 -51.13815,251.32218 -40.96719,62.52498 -128.48048,143.16867 -128.48048,143.16867 0,0 81.68012,-119.71693 98.84988,-162.5089 21.72627,-54.14825 36.96367,-104.00504 4.59772,-196.05733"
       id="path25759-5-1"
       sodipodi:nodetypes="ccscsc" /><path
       style="fill:none;stroke:#000000;stroke-width:7.80472;stroke-linecap:butt;stroke-linejoin:miter;stroke-dasharray:none;stroke-opacity:1"
       d="m -18.98055,-35.55945 v -95.02414"
       id="path3376" /><path
       style="fill:none;stroke:#000000;stroke-width:7.80472;stroke-linecap:butt;stroke-linejoin:miter;stroke-dasharray:none;stroke-opacity:1"
       d="m 98.61325,-35.55945 v -95.02414"
       id="path3376-3" /><path
       style="fill:none;stroke:#000000;stroke-width:7.80472;stroke-linecap:butt;stroke-linejoin:miter;stroke-dasharray:none;stroke-opacity:1"
       d="m 43.70307,-35.55945 v -95.02414"
       id="path3376-3-6" /></g></svg>
