<?xml version="1.0" encoding="UTF-8" standalone="no"?>
<svg
   version="1.0"
   width="1150"
   height="1150"
   id="jollyRoger"
   sodipodi:docname="icon-bg.svg"
   xml:space="preserve"
   inkscape:version="1.2.2 (b0a8486541, 2022-12-01)"
   xmlns:inkscape="http://www.inkscape.org/namespaces/inkscape"
   xmlns:sodipodi="http://sodipodi.sourceforge.net/DTD/sodipodi-0.dtd"
   xmlns="http://www.w3.org/2000/svg"
   xmlns:svg="http://www.w3.org/2000/svg"><defs
     id="defs160" /><sodipodi:namedview
     id="namedview158"
     pagecolor="#505050"
     bordercolor="#ffffff"
     borderopacity="1"
     inkscape:showpageshadow="0"
     inkscape:pageopacity="0"
     inkscape:pagecheckerboard="1"
     inkscape:deskcolor="#505050"
     showgrid="false"
     inkscape:zoom="0.51300902"
     inkscape:cx="50.68137"
     inkscape:cy="497.06728"
     inkscape:window-width="2254"
     inkscape:window-height="1475"
     inkscape:window-x="0"
     inkscape:window-y="0"
     inkscape:window-maximized="1"
     inkscape:current-layer="jollyRoger" /><g
     id="g29462"
     transform="translate(-533.60507,1302.7981)"><ellipse
       style="fill:#ffffff;fill-opacity:1;stroke:none;stroke-width:0;stroke-linejoin:bevel;stroke-opacity:1"
       id="path22787-1"
       cx="-793.44983"
       cy="-828.6153"
       rx="125.7772"
       ry="78.45903"
       transform="rotate(-15.550736)" /><rect
       style="fill:#ffffff;fill-opacity:1;stroke:none;stroke-width:0;stroke-linejoin:bevel;stroke-opacity:1"
       id="rect22789-9"
       width="64.928619"
       height="586.92163"
       x="-930.30487"
       y="-1206.2068" /><path
       style="fill:#ffffff;fill-opacity:1;stroke:none;stroke-width:1px;stroke-linecap:butt;stroke-linejoin:miter;stroke-opacity:1"
       d="m -930.30487,-1206.2068 v -84.2176 c 0,0 142.48029,50.6936 205.49566,153.4584 39.0757,63.7242 74.68383,177.27613 74.68383,177.27613 0,0 -73.43637,-124.94353 -104.81569,-158.72653 -39.70691,-42.7484 -78.30033,-77.7973 -175.3638,-87.7904"
       id="path25759"
       sodipodi:nodetypes="ccscsc" /></g><rect
     style="fill:#000000;fill-opacity:1;stroke-width:0;stroke-linejoin:bevel"
     id="rect913"
     width="1150"
     height="1150"
     x="0"
     y="0" /><path
     id="path7269"
     style="fill:#ffffff;fill-opacity:1;stroke:#ffffff;stroke-width:0;stroke-linejoin:bevel;stroke-opacity:1"
     d="m 577.26724,201.29095 c -136.33647,3.1e-4 -246.85895,110.52279 -246.85926,246.85926 v 133.84153 c 77.1523,0 139.69662,62.31283 139.69671,139.17967 h 214.3251 c 9e-5,-76.86684 62.54441,-139.17967 139.69671,-139.17967 V 448.15021 C 824.12619,311.81374 713.60371,201.29126 577.26724,201.29095 Z M 470.10469,366.16903 c 45.44522,0 82.28598,36.7041 82.28641,81.98118 -4.4e-4,45.27707 -36.84119,81.98116 -82.28641,81.98116 -45.44522,0 -82.28597,-36.70409 -82.28641,-81.98116 4.3e-4,-45.27708 36.84119,-81.98118 82.28641,-81.98118 z m 214.3251,0 c 45.44523,-1e-5 82.286,36.70409 82.28643,81.98118 -4.4e-4,45.27708 -36.84121,81.98117 -82.28643,81.98116 -45.44522,0 -82.28598,-36.70409 -82.28642,-81.98116 4.3e-4,-45.27708 36.84119,-81.98118 82.28642,-81.98118 z m -107.16255,123.38235 29.3094,50.76351 29.30732,50.76353 h -58.61672 -58.61672 l 29.30731,-50.76353 z"
     sodipodi:nodetypes="ccccccccscscsscscsccccccc" /><ellipse
     style="fill:#ffffff;fill-opacity:1;stroke:none;stroke-width:0;stroke-linejoin:bevel;stroke-opacity:1"
     id="path22787-1-8"
     cx="805.42865"
     cy="306.56696"
     rx="125.7772"
     ry="78.45903"
     transform="rotate(49.199249)" /><path
     id="rect22789-9-4"
     style="fill:#ffffff;fill-opacity:1;stroke:none;stroke-width:0;stroke-linejoin:bevel;stroke-opacity:1"
     d="M 879.55826,596.14266 726.76139,668.20711 A 136.78653,136.22731 0 0 1 591.97232,781.69734 136.78653,136.22731 0 0 1 524.20865,763.73641 l -175.49414,82.76952 27.69726,58.72461 530.84375,-250.36327 z" /><path
     style="fill:#ffffff;fill-opacity:1;stroke:none;stroke-width:1px;stroke-linecap:butt;stroke-linejoin:miter;stroke-opacity:1"
     d="m 879.55898,596.14283 76.17103,-35.92462 c 0,0 14.92759,150.49134 -51.13815,251.32218 -40.96719,62.52498 -128.48048,143.16867 -128.48048,143.16867 0,0 81.68012,-119.71693 98.84988,-162.5089 21.72627,-54.14825 36.96367,-104.00504 4.59772,-196.05733"
     id="path25759-5"
     sodipodi:nodetypes="ccscsc" /><path
     style="fill:none;stroke:#000000;stroke-width:7.80472;stroke-linecap:butt;stroke-linejoin:miter;stroke-dasharray:none;stroke-opacity:1"
     d="M 518.48598,721.17141 V 626.14727"
     id="path3376" /><path
     style="fill:none;stroke:#000000;stroke-width:7.80472;stroke-linecap:butt;stroke-linejoin:miter;stroke-dasharray:none;stroke-opacity:1"
     d="M 636.07978,721.17141 V 626.14727"
     id="path3376-3" /><path
     style="fill:none;stroke:#000000;stroke-width:7.80472;stroke-linecap:butt;stroke-linejoin:miter;stroke-dasharray:none;stroke-opacity:1"
     d="M 581.1696,721.17141 V 626.14727"
     id="path3376-3-6" /></svg>
