<?xml version="1.0" encoding="UTF-8" standalone="no"?>
<svg
   version="1.0"
   width="800"
   height="800"
   id="jollyRoger"
   sodipodi:docname="icon.svg"
   xml:space="preserve"
   inkscape:version="1.2.2 (b0a8486541, 2022-12-01)"
   xmlns:inkscape="http://www.inkscape.org/namespaces/inkscape"
   xmlns:sodipodi="http://sodipodi.sourceforge.net/DTD/sodipodi-0.dtd"
   xmlns="http://www.w3.org/2000/svg"
   xmlns:svg="http://www.w3.org/2000/svg"><defs
     id="defs160" /><sodipodi:namedview
     id="namedview158"
     pagecolor="#505050"
     bordercolor="#ffffff"
     borderopacity="1"
     inkscape:showpageshadow="0"
     inkscape:pageopacity="0"
     inkscape:pagecheckerboard="1"
     inkscape:deskcolor="#505050"
     showgrid="false"
     inkscape:zoom="0.38136296"
     inkscape:cx="288.43913"
     inkscape:cy="1166.8674"
     inkscape:window-width="1126"
     inkscape:window-height="1475"
     inkscape:window-x="1128"
     inkscape:window-y="0"
     inkscape:window-maximized="1"
     inkscape:current-layer="jollyRoger" /><g
     id="g29462"
     transform="translate(-533.60507,1302.7981)"><ellipse
       style="fill:#ffffff;fill-opacity:1;stroke:none;stroke-width:0;stroke-linejoin:bevel;stroke-opacity:1"
       id="path22787-1"
       cx="-793.44983"
       cy="-828.6153"
       rx="125.7772"
       ry="78.45903"
       transform="rotate(-15.550736)" /><rect
       style="fill:#ffffff;fill-opacity:1;stroke:none;stroke-width:0;stroke-linejoin:bevel;stroke-opacity:1"
       id="rect22789-9"
       width="64.928619"
       height="586.92163"
       x="-930.30487"
       y="-1206.2068" /><path
       style="fill:#ffffff;fill-opacity:1;stroke:none;stroke-width:1px;stroke-linecap:butt;stroke-linejoin:miter;stroke-opacity:1"
       d="m -930.30487,-1206.2068 v -84.2176 c 0,0 142.48029,50.6936 205.49566,153.4584 39.0757,63.7242 74.68383,177.27613 74.68383,177.27613 0,0 -73.43637,-124.94353 -104.81569,-158.72653 -39.70691,-42.7484 -78.30033,-77.7973 -175.3638,-87.7904"
       id="path25759"
       sodipodi:nodetypes="ccscsc" /></g><g
     id="g8406"
     transform="translate(219.58713,-593.56874)"><path
       id="path7269-7"
       style="fill:#ffffff;fill-opacity:1;stroke:#ffffff;stroke-width:0;stroke-linejoin:bevel;stroke-opacity:1"
       d="M 182.6801,616.85968 C 46.34363,616.85999 -64.17885,727.38247 -64.17916,863.71894 v 133.84153 c 77.1523,0 139.69662,62.31283 139.69671,139.17963 h 214.3251 c 9e-5,-76.8668 62.54441,-139.17963 139.69671,-139.17963 V 863.71894 C 429.53905,727.38247 319.01657,616.85999 182.6801,616.85968 Z M 75.51755,781.73776 c 45.44522,0 82.28598,36.7041 82.28641,81.98118 -4.4e-4,45.27707 -36.84119,81.98116 -82.28641,81.98116 -45.44522,0 -82.28597,-36.70409 -82.28641,-81.98116 4.3e-4,-45.27708 36.84119,-81.98118 82.28641,-81.98118 z m 214.3251,0 c 45.44523,-10e-6 82.286,36.70409 82.28643,81.98118 -4.4e-4,45.27708 -36.84121,81.98117 -82.28643,81.98116 -45.44522,0 -82.28598,-36.70409 -82.28642,-81.98116 4.3e-4,-45.27708 36.84119,-81.98118 82.28642,-81.98118 z m -107.16255,123.38235 29.3094,50.76351 29.30732,50.76348 H 182.6801 124.06338 l 29.30731,-50.76348 z"
       sodipodi:nodetypes="ccccccccscscsscscsccccccc" /><ellipse
       style="fill:#ffffff;fill-opacity:1;stroke:none;stroke-width:0;stroke-linejoin:bevel;stroke-opacity:1"
       id="path22787-1-8-5"
       cx="862.17328"
       cy="876.80939"
       rx="125.7772"
       ry="78.45903"
       transform="rotate(49.199249)" /><path
       id="rect22789-9-4-3"
       style="fill:#ffffff;fill-opacity:1;stroke:none;stroke-width:0;stroke-linejoin:bevel;stroke-opacity:1"
       d="m 484.97112,1011.7114 -152.79687,72.0644 a 136.78653,136.22731 0 0 1 -134.78907,113.4903 136.78653,136.22731 0 0 1 -67.76367,-17.961 l -175.49414,82.7696 27.69726,58.7246 530.84375,-250.3633 z" /><path
       style="fill:#ffffff;fill-opacity:1;stroke:none;stroke-width:1px;stroke-linecap:butt;stroke-linejoin:miter;stroke-opacity:1"
       d="m 484.97184,1011.7116 76.17103,-35.92466 c 0,0 14.92759,150.49136 -51.13815,251.32216 -40.96719,62.525 -128.48048,143.1687 -128.48048,143.1687 0,0 81.68012,-119.7169 98.84988,-162.5089 21.72627,-54.1483 36.96367,-104.005 4.59772,-196.0573"
       id="path25759-5-5"
       sodipodi:nodetypes="ccscsc" /><path
       style="fill:none;stroke:#000000;stroke-width:7.80472;stroke-linecap:butt;stroke-linejoin:miter;stroke-dasharray:none;stroke-opacity:1"
       d="M 123.89884,1136.7401 V 1041.716"
       id="path3376" /><path
       style="fill:none;stroke:#000000;stroke-width:7.80472;stroke-linecap:butt;stroke-linejoin:miter;stroke-dasharray:none;stroke-opacity:1"
       d="M 241.49264,1136.7401 V 1041.716"
       id="path3376-3" /><path
       style="fill:none;stroke:#000000;stroke-width:7.80472;stroke-linecap:butt;stroke-linejoin:miter;stroke-dasharray:none;stroke-opacity:1"
       d="M 186.58246,1136.7401 V 1041.716"
       id="path3376-3-6" /></g></svg>
